[Header]
FileType HTR
DataType HTRS
FileVersion 1
NumSegments 64
NumFrames 4
DataFrameRate 24
EulerRotationOrder ZYX
CalibrationUnits mm
RotationUnits Degrees
GlobalAxisofGravity Y
BoneLengthAxis Y
ScaleFactor 1.0
[SegmentNames&Hierarchy]
Hips	GLOBAL
Spine	Hips
Spine1	Spine
Spine2	Spine1
Neck	Spine2
Head	Neck
LeftEye	Head
RightEye	Head
LeftShoulder	Spine2
LeftArm	LeftShoulder
LeftForeArm	LeftArm
LeftHand	LeftForeArm
LeftHandThumb1	LeftHand
LeftHandThumb2	LeftHandThumb1
LeftHandThumb3	LeftHandThumb2
LeftHandThumb4	LeftHandThumb3
LeftHandIndex1	LeftHand
LeftHandIndex2	LeftHandIndex1
LeftHandIndex3	LeftHandIndex2
LeftHandIndex4	LeftHandIndex3
LeftHandMiddle1	LeftHand
LeftHandMiddle2	LeftHandMiddle1
LeftHandMiddle3	LeftHandMiddle2
LeftHandMiddle4	LeftHandMiddle3
LeftHandRing1	LeftHand
LeftHandRing2	LeftHandRing1
LeftHandRing3	LeftHandRing2
LeftHandRing4	LeftHandRing3
LeftHandPinky1	LeftHand
LeftHandPinky2	LeftHandPinky1
LeftHandPinky3	LeftHandPinky2
LeftHandPinky4	LeftHandPinky3
RightShoulder	Spine2
RightArm	RightShoulder
RightForeArm	RightArm
RightHand	RightForeArm
RightHandPinky1	RightHand
RightHandPinky2	RightHandPinky1
RightHandPinky3	RightHandPinky2
RightHandPinky4	RightHandPinky3
RightHandRing1	RightHand
RightHandRing2	RightHandRing1
RightHandRing3	RightHandRing2
RightHandRing4	RightHandRing3
RightHandMiddle1	RightHand
RightHandMiddle2	RightHandMiddle1
RightHandMiddle3	RightHandMiddle2
RightHandMiddle4	RightHandMiddle3
RightHandIndex1	RightHand
RightHandIndex2	RightHandIndex1
RightHandIndex3	RightHandIndex2
RightHandIndex4	RightHandIndex3
RightHandThumb1	RightHand
RightHandThumb2	RightHandThumb1
RightHandThumb3	RightHandThumb2
RightHandThumb4	RightHandThumb3
LeftUpLeg	Hips
LeftLeg	LeftUpLeg
LeftFoot	LeftLeg
LeftToeBase	LeftFoot
RightUpLeg	Hips
RightLeg	RightUpLeg
RightFoot	RightLeg
RightToeBase	RightFoot
[BasePosition]
Hips	0	0	0	0	0	0	1
Spine	0	0	0	0	0	0	1
Spine1	0	0	0	0	0	0	1
Spine2	0	0	0	0	0	0	1
Neck	0	0	0	0	0	0	1
Head	0	0	0	0	0	0	1
LeftEye	0	0	0	0	0	0	1
RightEye	0	0	0	0	0	0	1
LeftShoulder	0	0	0	0	0	0	1
LeftArm	0	0	0	0	0	0	1
LeftForeArm	0	0	0	0	0	0	1
LeftHand	0	0	0	0	0	0	1
LeftHandThumb1	0	0	0	0	0	0	1
LeftHandThumb2	0	0	0	0	0	0	1
LeftHandThumb3	0	0	0	0	0	0	1
LeftHandThumb4	0	0	0	0	0	0	1
LeftHandIndex1	0	0	0	0	0	0	1
LeftHandIndex2	0	0	0	0	0	0	1
LeftHandIndex3	0	0	0	0	0	0	1
LeftHandIndex4	0	0	0	0	0	0	1
LeftHandMiddle1	0	0	0	0	0	0	1
LeftHandMiddle2	0	0	0	0	0	0	1
LeftHandMiddle3	0	0	0	0	0	0	1
LeftHandMiddle4	0	0	0	0	0	0	1
LeftHandRing1	0	0	0	0	0	0	1
LeftHandRing2	0	0	0	0	0	0	1
LeftHandRing3	0	0	0	0	0	0	1
LeftHandRing4	0	0	0	0	0	0	1
LeftHandPinky1	0	0	0	0	0	0	1
LeftHandPinky2	0	0	0	0	0	0	1
LeftHandPinky3	0	0	0	0	0	0	1
LeftHandPinky4	0	0	0	0	0	0	1
RightShoulder	0	0	0	0	0	0	1
RightArm	0	0	0	0	0	0	1
RightForeArm	0	0	0	0	0	0	1
RightHand	0	0	0	0	0	0	1
RightHandPinky1	0	0	0	0	0	0	1
RightHandPinky2	0	0	0	0	0	0	1
RightHandPinky3	0	0	0	0	0	0	1
RightHandPinky4	0	0	0	0	0	0	1
RightHandRing1	0	0	0	0	0	0	1
RightHandRing2	0	0	0	0	0	0	1
RightHandRing3	0	0	0	0	0	0	1
RightHandRing4	0	0	0	0	0	0	1
RightHandMiddle1	0	0	0	0	0	0	1
RightHandMiddle2	0	0	0	0	0	0	1
RightHandMiddle3	0	0	0	0	0	0	1
RightHandMiddle4	0	0	0	0	0	0	1
RightHandIndex1	0	0	0	0	0	0	1
RightHandIndex2	0	0	0	0	0	0	1
RightHandIndex3	0	0	0	0	0	0	1
RightHandIndex4	0	0	0	0	0	0	1
RightHandThumb1	0	0	0	0	0	0	1
RightHandThumb2	0	0	0	0	0	0	1
RightHandThumb3	0	0	0	0	0	0	1
RightHandThumb4	0	0	0	0	0	0	1
LeftUpLeg	0	0	0	0	0	0	1
LeftLeg	0	0	0	0	0	0	1
LeftFoot	0	0	0	0	0	0	1
LeftToeBase	0	0	0	0	0	0	1
RightUpLeg	0	0	0	0	0	0	1
RightLeg	0	0	0	0	0	0	1
RightFoot	0	0	0	0	0	0	1
RightToeBase	0	0	0	0	0	0	1
[Hips]
53	-117.6557846	710.9492188	-1571.069214	-294.6965332	4.565616131	0.6779204011	1.0
54	-110.5665131	709.4545898	-1594.118652	-295.3967285	2.732495546	0.05011941493	1.0
55	-100.0893021	734.6281738	-1600.710571	-295.8684692	0.3548270762	-1.247662187	1.0
56	-86.71057892	771.605835	-1589.44751	-298.0297546	-0.453004837	-2.839518547	1.0
[Spine]
53	0	101.8159943	1.315000057	9.776209831	-4.202567577	-3.18266654	1.0
54	0	101.8159943	1.315000057	10.62501526	-3.31833601	-3.350074291	1.0
55	0	101.8159943	1.315000057	10.40913105	-2.433818817	-2.897323132	1.0
56	0	101.8159943	1.315000057	10.00125122	-1.998456717	-2.41758585	1.0
[Spine1]
53	0	100.8349991	-10.00800037	19.89106178	-8.163709641	-7.365800858	1.0
54	0	100.8349991	-10.00800037	21.53619385	-6.447498798	-7.720879555	1.0
55	0	100.8349991	-10.00800037	21.02867317	-5.009232044	-6.785592079	1.0
56	0	100.8349991	-10.00800037	20.18834686	-4.542922497	-6.033393383	1.0
[Spine2]
53	0	91	-13.73399925	19.89105225	-8.163711548	-7.365800858	1.0
54	0	91	-13.73399925	21.53620148	-6.44749403	-7.720880985	1.0
55	0	91	-13.73399925	21.02867889	-5.009232521	-6.785593987	1.0
56	0	91	-13.73399925	20.18835258	-4.542925358	-6.033397198	1.0
[Neck]
53	0	166.7169952	-25.16200066	11.82417107	4.186524391	-4.123150349	1.0
54	0	166.7169952	-25.16200066	7.235067368	3.229615688	-4.320168972	1.0
55	0	166.7169952	-25.16200066	4.622025013	2.594386101	-4.157749653	1.0
56	0	166.7169952	-25.16200066	3.658467293	2.74216795	-3.342773199	1.0
[Head]
53	0	96.17900085	16.84999847	-29.10572624	9.515902519	-2.290630817	1.0
54	0	96.17900085	16.84999847	-42.57848358	6.651124001	-0.1313925385	1.0
55	0	96.17900085	16.84999847	-50.62646103	5.743563652	1.644218445	1.0
56	0	96.17900085	16.84999847	-51.64465332	7.252488613	0.2260807902	1.0
[LeftEye]
53	30.6760006	64.09500122	92.83599854	0	0	0	1.0
54	30.6760006	64.09500122	92.83599854	0	0	0	1.0
55	30.6760006	64.09500122	92.83599854	0	0	0	1.0
56	30.6760006	64.09500122	92.83599854	0	0	0	1.0
[RightEye]
53	-30.6760006	64.09500122	92.83499908	0	0	0	1.0
54	-30.6760006	64.09500122	92.83499908	0	0	0	1.0
55	-30.6760006	64.09500122	92.83499908	0	0	0	1.0
56	-30.6760006	64.09500122	92.83499908	0	0	0	1.0
[LeftShoulder]
53	45.70400238	109.4599991	-26.28000069	-0.8090789914	-13.04854107	4.881737232	1.0
54	45.70400238	109.4599991	-26.28000069	-0.5724013448	-11.75943184	3.968403101	1.0
55	45.70400238	109.4599991	-26.28000069	-0.19051449	-10.74264336	2.026229858	1.0
56	45.70400238	109.4599991	-26.28000069	-0.01322469395	-12.82808399	0.9946405888	1.0
[LeftArm]
53	105.923996	-5.24600029	-22.32099915	-57.10616302	-16.81990814	-8.393286705	1.0
54	105.923996	-5.24600029	-22.32099915	-62.10185242	-21.133564	-0.7052379251	1.0
55	105.923996	-5.24600029	-22.32099915	-57.24530029	-26.27604103	-0.376460731	1.0
56	105.923996	-5.24600029	-22.32099915	-41.12608719	-28.82797241	-10.76587582	1.0
[LeftForeArm]
53	278.414978	-0.0009999999311	0	-542.3677979	-97.64306641	541.1188354	1.0
54	278.414978	-0.0009999999311	0	-543.4359741	-94.35054779	542.0955811	1.0
55	278.414978	-0.0009999999311	0	-541.5652466	-95.88743591	540.6222534	1.0
56	278.414978	-0.0009999999311	0	-540.9678955	-98.75276947	540.7665405	1.0
[LeftHand]
53	283.2879944	0	0	-7.704361916	-29.35744667	39.63462448	1.0
54	283.2879944	0	0	-6.185517788	-33.65059662	41.46312714	1.0
55	283.2879944	0	0	-3.892234087	-36.93751144	37.87123871	1.0
56	283.2879944	0	0	-0.9989233017	-34.14881897	28.89525223	1.0
[LeftHandThumb1]
53	24.6609993	-15.75	26.8239994	-2.324234962	-4.068439484	15.76919746	1.0
54	24.6609993	-15.75	26.8239994	-2.169524908	-4.210337162	15.94802856	1.0
55	24.6609993	-15.75	26.8239994	-2.013525724	-4.353999615	16.12859917	1.0
56	24.6609993	-15.75	26.8239994	-1.856133103	-4.499456406	16.31108475	1.0
[LeftHandThumb2]
53	32.29800034	-18.64699936	18.64699936	4.81543541	6.028460026	-4.589137077	1.0
54	32.29800034	-18.64699936	18.64699936	4.894550323	6.013335705	-4.830094337	1.0
55	32.29800034	-18.64699936	18.64699936	4.97471571	5.998363972	-5.073672295	1.0
56	32.29800034	-18.64699936	18.64699936	5.055987835	5.983621597	-5.319999218	1.0
[LeftHandThumb3]
53	26.52600098	-15.31499958	15.31499958	3.601811159e-06	-8.438974328e-05	-6.943767221e-05	1.0
54	26.52600098	-15.31499958	15.31499958	3.601811159e-06	-8.438974328e-05	-6.943767221e-05	1.0
55	26.52600098	-15.31499958	15.31499958	3.601811159e-06	-8.438974328e-05	-6.943767221e-05	1.0
56	26.52600098	-15.31499958	15.31499958	3.601811159e-06	-8.438974328e-05	-6.943767221e-05	1.0
[LeftHandThumb4]
53	19.54599953	-11.28499985	11.28499985	0	0	0	1.0
54	19.54599953	-11.28499985	11.28499985	0	0	0	1.0
55	19.54599953	-11.28499985	11.28499985	0	0	0	1.0
56	19.54599953	-11.28499985	11.28499985	0	0	0	1.0
[LeftHandIndex1]
53	91.09299469	-5.170999527	22.60099792	0.09420822561	-0.7778872848	-8.6808815	1.0
54	91.09299469	-5.170999527	22.60099792	0.09421044588	-0.7778991461	-8.680870056	1.0
55	91.09299469	-5.170999527	22.60099792	0.09419494122	-0.7779027224	-8.680886269	1.0
56	91.09299469	-5.170999527	22.60099792	0.09419941157	-0.777879715	-8.680871964	1.0
[LeftHandIndex2]
53	36.76399994	0	0	-0.1557246745	0.743575871	-16.87997055	1.0
54	36.76399994	0	0	-0.1557248384	0.7435732484	-16.87996101	1.0
55	36.76399994	0	0	-0.1557115614	0.7435807586	-16.87995529	1.0
56	36.76399994	0	0	-0.1557210237	0.7435775399	-16.87995529	1.0
[LeftHandIndex3]
53	28.83100128	0	0	-1.432096042e-06	3.907105395e-07	1.552835329e-06	1.0
54	28.83100128	0	0	-1.432096042e-06	3.907105395e-07	1.552835329e-06	1.0
55	28.83100128	0	0	-1.432096042e-06	3.907105395e-07	1.552835329e-06	1.0
56	28.83100128	0	0	-1.432096042e-06	3.907105395e-07	1.552835329e-06	1.0
[LeftHandIndex4]
53	23.92700005	0	0	0	0	0	1.0
54	23.92700005	0	0	0	0	0	1.0
55	23.92700005	0	0	0	0	0	1.0
56	23.92700005	0	0	0	0	0	1.0
[LeftHandMiddle1]
53	95.33399963	0	0	-0.5579394698	0.1743305326	-16.01579094	1.0
54	95.33399963	0	0	-0.5579282045	0.1743423939	-16.01577377	1.0
55	95.33399963	0	0	-0.5579359531	0.174331665	-16.01579094	1.0
56	95.33399963	0	0	-0.5579515696	0.1743509918	-16.01578903	1.0
[LeftHandMiddle2]
53	36.98199844	0	0	-0.2017818391	-0.7876954079	-14.25037289	1.0
54	36.98199844	0	0	-0.2017894238	-0.7876955271	-14.25036812	1.0
55	36.98199844	0	0	-0.2017976642	-0.7876879573	-14.25036621	1.0
56	36.98199844	0	0	-0.2017852217	-0.787697494	-14.25036049	1.0
[LeftHandMiddle3]
53	29.50900078	0	0	0	-3.180554719e-15	-7.951386796e-16	1.0
54	29.50900078	0	0	0	-3.180554719e-15	-7.951386796e-16	1.0
55	29.50900078	0	0	0	-3.180554719e-15	-7.951386796e-16	1.0
56	29.50900078	0	0	0	-3.180554719e-15	-7.951386796e-16	1.0
[LeftHandMiddle4]
53	28.3390007	0	0	0	0	0	1.0
54	28.3390007	0	0	0	0	0	1.0
55	28.3390007	0	0	0	0	0	1.0
56	28.3390007	0	0	0	0	0	1.0
[LeftHandRing1]
53	91.04499817	-0.4390000105	-18.65100098	-2.868407488	5.925548077	-26.89398575	1.0
54	91.04499817	-0.4390000105	-18.65100098	-2.868405819	5.925540447	-26.89398193	1.0
55	91.04499817	-0.4390000105	-18.65100098	-2.868417263	5.925532341	-26.89399338	1.0
56	91.04499817	-0.4390000105	-18.65100098	-2.86840868	5.925541878	-26.89398575	1.0
[LeftHandRing2]
53	31.54000092	0	0	0.9494835138	-2.137210369	-23.15407944	1.0
54	31.54000092	0	0	0.9494947195	-2.137234211	-23.15406609	1.0
55	31.54000092	0	0	0.9494890571	-2.13721776	-23.1540699	1.0
56	31.54000092	0	0	0.9494865537	-2.137228012	-23.15406799	1.0
[LeftHandRing3]
53	29.37700081	0	0	1.590277359e-15	3.180554719e-15	-7.951386796e-16	1.0
54	29.37700081	0	0	1.590277359e-15	3.180554719e-15	-7.951386796e-16	1.0
55	29.37700081	0	0	1.590277359e-15	3.180554719e-15	-7.951386796e-16	1.0
56	29.37700081	0	0	1.590277359e-15	3.180554719e-15	-7.951386796e-16	1.0
[LeftHandRing4]
53	26.47500038	0	0	0	0	0	1.0
54	26.47500038	0	0	0	0	0	1.0
55	26.47500038	0	0	0	0	0	1.0
56	26.47500038	0	0	0	0	0	1.0
[LeftHandPinky1]
53	80.77799988	-4.887000084	-38.06099701	-3.711858988	11.62432194	-25.36017227	1.0
54	80.77799988	-4.887000084	-38.06099701	-3.708726168	11.62611961	-25.34466934	1.0
55	80.77799988	-4.887000084	-38.06099701	-3.705576181	11.62794495	-25.32901955	1.0
56	80.77799988	-4.887000084	-38.06099701	-3.702383995	11.62981892	-25.31316376	1.0
[LeftHandPinky2]
53	36	0	0	3.929042339	-4.800860882	-38.62776184	1.0
54	36	0	0	3.935090065	-4.797467709	-38.70034409	1.0
55	36	0	0	3.94124198	-4.794035912	-38.77368164	1.0
56	36	0	0	3.947436571	-4.790585518	-38.84787369	1.0
[LeftHandPinky3]
53	21.14200211	0	0	3.226109357e-06	2.925280342e-06	-5.739977951e-06	1.0
54	21.14200211	0	0	3.226109357e-06	2.925280342e-06	-5.739977951e-06	1.0
55	21.14200211	0	0	3.226109357e-06	2.925280342e-06	-5.739977951e-06	1.0
56	21.14200211	0	0	3.226109357e-06	2.925280342e-06	-5.739977951e-06	1.0
[LeftHandPinky4]
53	19.75699997	0	0	0	0	0	1.0
54	19.75699997	0	0	0	0	0	1.0
55	19.75699997	0	0	0	0	0	1.0
56	19.75699997	0	0	0	0	0	1.0
[RightShoulder]
53	-45.70000076	109.4620056	-26.28000069	-0.185854882	6.100744724	-3.920344353	1.0
54	-45.70000076	109.4620056	-26.28000069	-0.06278602779	9.01508522	-1.460777879	1.0
55	-45.70000076	109.4620056	-26.28000069	0.8108276129	13.59803391	2.942392826	1.0
56	-45.70000076	109.4620056	-26.28000069	1.978780866	17.1286869	7.586788654	1.0
[RightArm]
53	-105.9280014	-5.248000145	-22.32099915	-53.27864838	-6.206604481	30.77485657	1.0
54	-105.9280014	-5.248000145	-22.32099915	-49.61281586	-2.897477627	32.31375885	1.0
55	-105.9280014	-5.248000145	-22.32099915	-41.82152557	-1.620505929	35.89454269	1.0
56	-105.9280014	-5.248000145	-22.32099915	-34.31992722	-0.2985366285	40.03382111	1.0
[RightForeArm]
53	-278.414978	0	0	-5.48268652	101.9003143	-4.368754864	1.0
54	-278.414978	0	0	-1.295770645	106.3802872	-0.1500918269	1.0
55	-278.414978	0	0	-3.10842061	107.8445816	-2.073287249	1.0
56	-278.414978	0	0	4.681498051	90.41584015	5.053892612	1.0
[RightHand]
53	-283.2879944	0	0.0009999999311	-11.75113297	7.764014721	-26.95345879	1.0
54	-283.2879944	0	0.0009999999311	-5.861006737	10.7260046	-34.46896362	1.0
55	-283.2879944	0	0.0009999999311	-5.982365608	17.44095612	-31.23826218	1.0
56	-283.2879944	0	0.0009999999311	-8.117190361	21.49384308	-23.82394409	1.0
[RightHandPinky1]
53	-80.76699829	-4.885000229	-38.06000137	-1.619632602	-17.69410324	22.50608063	1.0
54	-80.76699829	-4.885000229	-38.06000137	-1.954192162	-19.07852745	22.73851395	1.0
55	-80.76699829	-4.885000229	-38.06000137	-2.281920671	-20.40185738	22.96995926	1.0
56	-80.76699829	-4.885000229	-38.06000137	-2.582743645	-21.59001541	23.18472672	1.0
[RightHandPinky2]
53	-36	0	0.0009999999311	8.604011536	5.838887215	61.16122055	1.0
54	-36	0	0.0009999999311	8.611381531	5.833599567	61.23376083	1.0
55	-36	0	0.0009999999311	8.618841171	5.828228951	61.30713654	1.0
56	-36	0	0.0009999999311	8.626382828	5.8227911	61.38134384	1.0
[RightHandPinky3]
53	-21.14200211	0	0	-1.590277359e-15	0	-7.951386796e-16	1.0
54	-21.14200211	0	0	-1.590277359e-15	0	-7.951386796e-16	1.0
55	-21.14200211	0	0	-1.590277359e-15	0	-7.951386796e-16	1.0
56	-21.14200211	0	0	-1.590277359e-15	0	-7.951386796e-16	1.0
[RightHandPinky4]
53	-19.75699997	0	0	0	0	0	1.0
54	-19.75699997	0	0	0	0	0	1.0
55	-19.75699997	0	0	0	0	0	1.0
56	-19.75699997	0	0	0	0	0	1.0
[RightHandRing1]
53	-91.03599548	-0.4390000105	-18.65100098	-1.604268193	-8.010580063	22.10623741	1.0
54	-91.03599548	-0.4390000105	-18.65100098	-1.851114511	-8.77460289	22.21564865	1.0
55	-91.03599548	-0.4390000105	-18.65100098	-2.10725975	-9.560418129	22.3319664	1.0
56	-91.03599548	-0.4390000105	-18.65100098	-2.352738142	-10.30661488	22.44608688	1.0
[RightHandRing2]
53	-31.54000092	0	0	3.237376928	3.772253752	46.11830902	1.0
54	-31.54000092	0	0	3.237393618	3.77224493	46.11832428	1.0
55	-31.54000092	0	0	3.23737359	3.772247553	46.11828995	1.0
56	-31.54000092	0	0	3.237375736	3.772245407	46.11830521	1.0
[RightHandRing3]
53	-29.37700081	0	0	5.740008078e-07	-7.531911024e-07	-2.69121324e-06	1.0
54	-29.37700081	0	0	5.740008078e-07	-7.531911024e-07	-2.69121324e-06	1.0
55	-29.37700081	0	0	5.740008078e-07	-7.531911024e-07	-2.69121324e-06	1.0
56	-29.37700081	0	0	5.740008078e-07	-7.531911024e-07	-2.69121324e-06	1.0
[RightHandRing4]
53	-26.47500038	0	0	0	0	0	1.0
54	-26.47500038	0	0	0	0	0	1.0
55	-26.47500038	0	0	0	0	0	1.0
56	-26.47500038	0	0	0	0	0	1.0
[RightHandMiddle1]
53	-95.32500458	0	0	-1.531797409	-0.3971507549	13.93678093	1.0
54	-95.32500458	0	0	-1.531792164	-0.3971577585	13.93676758	1.0
55	-95.32500458	0	0	-1.531795502	-0.3971575797	13.93677044	1.0
56	-95.32500458	0	0	-1.531793714	-0.3971534073	13.93677425	1.0
[RightHandMiddle2]
53	-36.98199844	0	0	-0.9470070601	3.265578747	41.22749329	1.0
54	-36.98199844	0	0	-0.9469988346	3.265577078	41.22750473	1.0
55	-36.98199844	0	0	-0.947011888	3.265587568	41.2274971	1.0
56	-36.98199844	0	0	-0.9470059276	3.265580177	41.22751617	1.0
[RightHandMiddle3]
53	-29.50900078	0	0	1.856611448e-06	-0.002022909233	1.577868488e-06	1.0
54	-29.50900078	0	0	1.856611448e-06	-0.002022909233	1.577868488e-06	1.0
55	-29.50900078	0	0	1.856611448e-06	-0.002022909233	1.577868488e-06	1.0
56	-29.50900078	0	0	1.856611448e-06	-0.002022909233	1.577868488e-06	1.0
[RightHandMiddle4]
53	-28.3390007	0	0.0009999999311	0	0	0	1.0
54	-28.3390007	0	0.0009999999311	0	0	0	1.0
55	-28.3390007	0	0.0009999999311	0	0	0	1.0
56	-28.3390007	0	0.0009999999311	0	0	0	1.0
[RightHandIndex1]
53	-91.08300018	-5.167999744	22.60099792	-0.407387048	2.118359089	3.859502554	1.0
54	-91.08300018	-5.167999744	22.60099792	-0.2629410326	3.012999058	3.798885584	1.0
55	-91.08300018	-5.167999744	22.60099792	-0.1128318161	3.948242426	3.737892151	1.0
56	-91.08300018	-5.167999744	22.60099792	0.03383267298	4.867055416	3.680295706	1.0
[RightHandIndex2]
53	-36.76399994	0	0	-1.48883903	2.073335171	43.75290298	1.0
54	-36.76399994	0	0	-1.4888345	2.073338985	43.75289154	1.0
55	-36.76399994	0	0	-1.488853216	2.073324919	43.75289536	1.0
56	-36.76399994	0	0	-1.488854051	2.073325396	43.75288391	1.0
[RightHandIndex3]
53	-28.83100128	0	0	-3.180554719e-15	0	0	1.0
54	-28.83100128	0	0	-3.180554719e-15	0	0	1.0
55	-28.83100128	0	0	-3.180554719e-15	0	0	1.0
56	-28.83100128	0	0	-3.180554719e-15	0	0	1.0
[RightHandIndex4]
53	-23.92700005	0	0	0	0	0	1.0
54	-23.92700005	0	0	0	0	0	1.0
55	-23.92700005	0	0	0	0	0	1.0
56	-23.92700005	0	0	0	0	0	1.0
[RightHandThumb1]
53	-24.64799881	-15.72700024	26.82600021	-2.324561834	4.068473339	-15.76955891	1.0
54	-24.64799881	-15.72700024	26.82600021	-2.169837952	4.210404873	-15.94836712	1.0
55	-24.64799881	-15.72700024	26.82600021	-2.013832569	4.35405302	-16.12895012	1.0
56	-24.64799881	-15.72700024	26.82600021	-1.8564533	4.499516487	-16.31143188	1.0
[RightHandThumb2]
53	-32.29800034	-18.64699936	18.64699936	4.815289974	-6.027207375	4.590616703	1.0
54	-32.29800034	-18.64699936	18.64699936	4.894401073	-6.012086391	4.831583977	1.0
55	-32.29800034	-18.64699936	18.64699936	4.974581718	-5.997138023	5.075163364	1.0
56	-32.29800034	-18.64699936	18.64699936	5.055836678	-5.982352257	5.321502686	1.0
[RightHandThumb3]
53	-26.52600098	-15.31399918	15.31399918	-3.81245151e-08	-0.00121095567	-0.001221005921	1.0
54	-26.52600098	-15.31399918	15.31399918	-3.81245151e-08	-0.00121095567	-0.001221005921	1.0
55	-26.52600098	-15.31399918	15.31399918	-3.81245151e-08	-0.00121095567	-0.001221005921	1.0
56	-26.52600098	-15.31399918	15.31399918	-3.81245151e-08	-0.00121095567	-0.001221005921	1.0
[RightHandThumb4]
53	-19.54599953	-11.28499985	11.28499985	0	0	0	1.0
54	-19.54599953	-11.28499985	11.28499985	0	0	0	1.0
55	-19.54599953	-11.28499985	11.28499985	0	0	0	1.0
56	-19.54599953	-11.28499985	11.28499985	0	0	0	1.0
[LeftUpLeg]
53	82.07800293	-67.51699829	-15.99599934	-102.0069122	10.35846806	-1.260573506	1.0
54	82.07800293	-67.51699829	-15.99599934	-102.0607681	10.17004013	-1.80924809	1.0
55	82.07800293	-67.51699829	-15.99599934	-101.8071365	10.09918976	-3.777198315	1.0
56	82.07800293	-67.51699829	-15.99599934	-95.62630463	10.34497356	-3.289184809	1.0
[LeftLeg]
53	0	-443.7049866	2.845999956	87.00402832	5.539605141	-7.42581892	1.0
54	0	-443.7049866	2.845999956	88.92728424	5.516248226	-1.820614457	1.0
55	0	-443.7049866	2.845999956	84.50717163	4.571881771	-6.095866203	1.0
56	0	-443.7049866	2.845999956	78.2212677	3.900609493	-6.344673634	1.0
[LeftFoot]
53	0	-444.2789917	-29.8219986	-49.42218781	-3.957414865	2.895025253	1.0
54	0	-444.2789917	-29.8219986	-49.20075226	-6.488749504	1.856674433	1.0
55	0	-444.2789917	-29.8219986	-46.17492676	-1.512518048	2.36740613	1.0
56	0	-444.2789917	-29.8219986	-44.02414322	0.03704610094	2.521355867	1.0
[LeftToeBase]
53	0	-87.28699493	107.1060028	-3.84422946	-1.121609444e-06	2.844441042e-06	1.0
54	0	-87.28699493	107.1060028	-2.098847866	3.530834192e-06	2.54171141e-07	1.0
55	0	-87.28699493	107.1060028	-1.170815468	2.244264806e-06	1.513832785e-06	1.0
56	0	-87.28699493	107.1060028	-3.336744308	2.279291039e-06	2.955540822e-06	1.0
[RightUpLeg]
53	-82.07800293	-67.51699829	-15.99599934	-102.1445999	-22.02883339	1.566403627	1.0
54	-82.07800293	-67.51699829	-15.99599934	-104.5676422	-22.82485962	3.813750744	1.0
55	-82.07800293	-67.51699829	-15.99599934	-103.3823853	-21.20651627	2.732007742	1.0
56	-82.07800293	-67.51699829	-15.99599934	-96.01319885	-19.12867165	0.8557084799	1.0
[RightLeg]
53	0	-443.7049866	2.861999989	83.55751801	-2.452721119	9.509346962	1.0
54	0	-443.7049866	2.861999989	84.02013397	-1.403581381	14.18984127	1.0
55	0	-443.7049866	2.861999989	78.61890411	-0.5561765432	12.89592838	1.0
56	0	-443.7049866	2.861999989	70.73691559	0.9867157936	11.56139374	1.0
[RightFoot]
53	0	-444.2770081	-29.83799934	-45.70668793	3.783261538	9.89378643	1.0
54	0	-444.2770081	-29.83799934	-42.90798187	2.761952162	7.413223743	1.0
55	0	-444.2770081	-29.83799934	-39.25251007	3.086399317	8.835662842	1.0
56	0	-444.2770081	-29.83799934	-36.0818634	2.925207376	10.62197304	1.0
[RightToeBase]
53	0	-87.28699493	107.1060028	-4.125434399	2.570008064e-06	-4.866804829e-06	1.0
54	0	-87.28699493	107.1060028	-6.0384655	4.702396836e-06	-1.612338565e-06	1.0
55	0	-87.28699493	107.1060028	-4.416721821	-1.312227596e-06	-1.640577466e-06	1.0
56	0	-87.28699493	107.1060028	-3.706544161	3.40382644e-06	2.905098654e-06	1.0
[EndOfFile]
